<?xml version="1.0" encoding="UTF-8" standalone="no"?>
<!-- Created with Inkscape (http://www.inkscape.org/) -->

<svg
   width="379.64062"
   height="100.3125"
   viewBox="0 0 379.64062 100.3125"
   version="1.1"
   id="svg5"
   inkscape:version="1.1.1 (3bf5ae0d25, 2021-09-20)"
   sodipodi:docname="logo_text.svg"
   xmlns:inkscape="http://www.inkscape.org/namespaces/inkscape"
   xmlns:sodipodi="http://sodipodi.sourceforge.net/DTD/sodipodi-0.dtd"
   xmlns="http://www.w3.org/2000/svg"
   xmlns:svg="http://www.w3.org/2000/svg">
  <sodipodi:namedview
     id="namedview7"
     pagecolor="#505050"
     bordercolor="#eeeeee"
     borderopacity="1"
     inkscape:pageshadow="0"
     inkscape:pageopacity="0"
     inkscape:pagecheckerboard="true"
     inkscape:document-units="px"
     showgrid="false"
     inkscape:zoom="0.7071068"
     inkscape:cx="29.698484"
     inkscape:cy="-162.63456"
     inkscape:window-width="1227"
     inkscape:window-height="1008"
     inkscape:window-x="1317"
     inkscape:window-y="0"
     inkscape:window-maximized="0"
     inkscape:current-layer="g827"
     fit-margin-top="0"
     fit-margin-left="0"
     fit-margin-right="0"
     fit-margin-bottom="0" />
  <defs
     id="defs2" />
  <g
     inkscape:label="Layer 1"
     inkscape:groupmode="layer"
     id="layer1"
     transform="translate(-601.37027,-306.03275)">
    <g
       id="g827"
       transform="translate(-108.89444,-4.2426406)">
      <ellipse
         style="fill:#b60000;fill-opacity:1;stroke-width:4.50469"
         id="path29865-3"
         cx="746.56116"
         cy="365.24152"
         rx="29.543823"
         ry="26.835926" />
      <g
         aria-label="Workager"
         id="text39614"
         style="font-size:96px;line-height:1.25;font-family:SirinStencil;-inkscape-font-specification:SirinStencil">
        <path
           d="m 741.95221,349.83789 -5.57813,24.28125 q -0.98437,4.26563 -3.75,6.42188 -2.8125,2.20312 -4.21875,2.20312 -1.35937,0 -1.35937,-1.40625 0,-0.98437 10.78125,-48.42187 0.42187,-1.875 1.64062,-1.875 1.3125,0 2.34375,4.45312 1.07813,4.45313 1.07813,7.82813 0,2.20312 -0.9375,6.51562 z m 40.96875,-31.21875 -14.67188,55.5 q -0.9375,4.26563 -3.84375,6.42188 -2.95312,2.20312 -4.64062,2.20312 -1.21875,0 -1.21875,-1.3125 0,-1.3125 0.79687,-4.125 l 14.0625,-54.51562 q 0.79688,-3 3.42188,-5.10938 2.67187,-2.10937 4.96875,-2.10937 1.40625,0 1.40625,1.40625 0,0.65625 -0.28125,1.64062 z m -61.17188,52.64063 -11.20312,-48.42188 q -0.28125,-1.40625 -0.28125,-1.73437 0,-2.20313 2.53125,-3.84375 2.53125,-1.6875 4.35937,-1.6875 0.79688,0 1.17188,0.46875 0.375,0.42187 0.65625,1.64062 l 8.57812,36.9375 q 0.51563,2.29688 0.51563,4.82813 0,5.15625 -1.54688,9.60937 -1.5,4.40625 -2.95312,4.40625 -1.35938,0 -1.82813,-2.20312 z m 20.57813,-52.45313 q 1.07812,-1.35937 2.85937,-2.29687 1.82813,-0.9375 3,-0.9375 0.75,0 1.17188,0.51562 0.42187,0.46875 0.75,1.6875 l 9.42187,38.76563 q 0.5625,2.53125 0.5625,4.5 0,1.73437 -0.9375,5.57812 -0.89062,3.79688 -1.73437,5.39063 -0.84375,1.54687 -1.92188,1.54687 -1.35937,0 -1.92187,-2.20312 l -11.90625,-48 q -0.28125,-1.07813 -0.28125,-2.01563 0,-1.3125 0.9375,-2.53125 z"
           style="fill:#f2f2f2"
           id="path9597" />
        <path
           d="m 810.67096,332.82227 q 10.6875,0 15.70312,6.32812 5.0625,6.28125 5.0625,18.5625 0,3.79688 -0.98437,8.15625 -0.9375,4.3125 -2.57813,7.6875 -1.78125,3.5625 -4.35937,6.04688 -2.57813,2.48437 -4.17188,2.48437 -0.98437,0 -0.98437,-0.89062 0,-0.28125 0.32812,-0.75 0.32813,-0.46875 0.89063,-1.40625 0.5625,-0.98438 0.98437,-2.25 1.92188,-5.25 1.92188,-14.85938 0,-5.29687 -0.75,-9.1875 -0.70313,-3.9375 -2.39063,-6.98437 -1.64062,-3.04688 -4.59375,-4.59375 -2.95312,-1.59375 -7.21875,-1.59375 -5.90625,0 -12.1875,4.3125 -0.23437,0.1875 -0.70312,0.51562 -0.46875,0.28125 -0.75,0.46875 -0.23438,0.1875 -0.51563,0.32813 -0.28125,0.14062 -0.46875,0.14062 -0.65625,0 -0.65625,-0.79687 0,-0.51563 0.51563,-1.5 0.5625,-0.98438 0.9375,-1.45313 6.84375,-8.76562 16.96875,-8.76562 z m -11.4375,23.57812 q 0,3.28125 0.14062,5.625 0.14063,2.34375 0.51563,4.875 0.42187,2.53125 1.21875,4.21875 0.84375,1.6875 2.0625,3.09375 1.26562,1.40625 3.1875,2.10938 1.92187,0.65625 4.5,0.65625 2.20312,0 3.84375,-0.60938 1.6875,-0.60937 1.92187,-0.60937 0.98438,0 0.98438,1.03125 0,2.10937 -3.04688,4.54687 -3,2.39063 -7.40625,2.39063 -4.07812,0 -7.125,-1.35938 -3,-1.35937 -4.82812,-3.5625 -1.82813,-2.20312 -2.95313,-5.53125 -1.07812,-3.32812 -1.45312,-6.70312 -0.375,-3.375 -0.375,-7.64063 0,-2.39062 0.46875,-5.01562 0.46875,-2.67188 1.26562,-4.07813 0.98438,-1.6875 3.14063,-3.09375 2.20312,-1.40625 3.75,-1.40625 1.17187,0 1.17187,1.40625 0,0.23438 -0.51562,3.60938 -0.46875,3.375 -0.46875,6.04687 z"
           style="fill:#f2f2f2"
           id="path9599" />
        <path
           d="m 841.60846,380.72852 v -23.625 q 0,-2.625 1.26562,-4.03125 1.26563,-1.45313 3,-2.625 1.73438,-1.21875 2.71875,-1.21875 1.45313,0 1.45313,2.01562 v 25.59375 q 0,2.57813 -2.29688,4.26563 -2.29687,1.64062 -4.5,1.64062 -1.64062,0 -1.64062,-2.01562 z m 20.15625,-47.90625 q 2.67187,0 5.57812,1.17187 2.95313,1.17188 2.95313,3.04688 0,1.5 -1.96875,3.14062 -1.96875,1.59375 -3.46875,1.59375 -1.26563,0 -3.5625,-1.17187 -2.15625,-1.03125 -3.9375,-1.03125 -1.125,0 -2.15625,0.375 -1.03125,0.32812 -2.39063,1.35937 -1.35937,0.98438 -2.25,1.73438 -0.84375,0.70312 -2.95312,2.67187 -2.0625,1.92188 -3.23438,2.95313 -1.03125,0.89062 -1.73437,0.89062 -1.03125,0 -1.03125,-1.73437 v -9.09375 q 0,-2.53125 2.29687,-4.21875 2.34375,-1.6875 4.5,-1.6875 1.64063,0 1.64063,2.01562 v 2.625 q 0,1.5 0.65625,1.5 0.51562,0 1.64062,-1.125 5.01563,-5.01562 9.42188,-5.01562 z"
           style="fill:#f2f2f2"
           id="path9601" />
        <path
           d="m 876.15533,380.72852 v -64.54688 q 0,-2.53125 2.29688,-4.21875 2.34375,-1.6875 4.5,-1.6875 1.64062,0 1.64062,2.01563 v 64.54687 q 0,2.57813 -2.29687,4.26563 -2.29688,1.64062 -4.5,1.64062 -1.64063,0 -1.64063,-2.01562 z m 34.40625,-1.40625 q -2.01562,3.42187 -4.40625,3.42187 -1.125,0 -2.29687,-1.73437 l -16.125,-23.57813 q -0.79688,-1.21875 -0.79688,-1.96875 0,-1.17187 1.26563,-2.57812 l 13.82812,-15.42188 q 1.96875,-2.20312 3.5625,-2.67187 1.59375,-0.46875 5.34375,-0.51563 1.45313,0 1.45313,1.17188 0,0.84375 -1.35938,2.20312 l -13.92187,14.39063 q -1.125,1.21875 -1.125,2.0625 0,0.70312 0.79687,1.73437 l 13.6875,18.75 q 0.84375,1.26563 0.84375,2.29688 0,1.17187 -0.75,2.4375 z"
           style="fill:#f2f2f2"
           id="path9603" />
        <path
           d="m 938.63971,332.82227 q 3.9375,0 7.07812,1.03125 3.14063,1.03125 5.29688,3.32812 2.15625,2.25 3.28125,5.85938 1.17187,3.5625 1.17187,8.625 v 25.40625 q 0,1.17187 -0.75,2.20312 -0.70312,1.03125 -1.78125,1.82813 -1.03125,0.75 -2.25,1.17187 -1.17187,0.46875 -2.0625,0.46875 -1.64062,0 -1.64062,-2.01562 v -27.32813 q 0,-13.82812 -10.96875,-13.82812 -6.375,0 -11.57813,3.51562 -2.0625,1.35938 -2.67187,1.35938 -0.70313,0 -0.70313,-0.75 0,-1.3125 1.45313,-3.09375 6.375,-7.78125 16.125,-7.78125 z m 4.78125,46.82812 q -1.96875,1.78125 -4.875,2.90625 -2.90625,1.17188 -5.57813,1.17188 -6.23437,0 -9.5625,-3.28125 -3.28125,-3.32813 -3.28125,-8.15625 0,-3.46875 2.39063,-5.29688 2.15625,-1.6875 3.75,-1.6875 0.51562,0 0.89062,0.375 0.375,0.375 0.375,1.125 0,5.34375 1.82813,7.78125 1.82812,2.39063 6.51562,2.39063 1.40625,0 3.42188,-0.46875 2.01562,-0.51563 3.42187,-1.35938 0.84375,-0.51562 1.26563,-0.51562 0.65625,0 0.65625,1.73437 0,2.15625 -1.21875,3.28125 z m -0.375,-25.3125 q 0.89062,0.46875 1.21875,1.26563 0.32812,0.75 0.32812,2.85937 0,1.875 -0.32812,2.71875 -0.28125,0.79688 -1.07813,0.79688 -0.51562,0 -1.45312,-0.42188 -4.40625,-1.92187 -7.96875,-1.92187 -5.76563,0 -10.96875,4.17187 -1.64063,1.3125 -2.20313,1.3125 -0.75,0 -0.75,-0.84375 0,-1.3125 0.9375,-2.85937 2.48438,-4.17188 6.51563,-6.32813 4.07812,-2.20312 9.04687,-2.20312 3.79688,0 6.70313,1.45312 z"
           style="fill:#f2f2f2"
           id="path9605" />
        <path
           d="m 968.31158,347.02539 q 0.9375,-0.79687 2.57813,-1.6875 1.64062,-0.9375 2.625,-0.9375 1.21875,0 1.21875,1.35938 0,0.375 -0.1875,1.96875 -0.14063,1.59375 -0.14063,3 0,3.04687 0.79688,5.29687 0.84375,2.20313 1.92187,3.32813 1.125,1.125 2.8125,1.78125 1.6875,0.60937 2.85938,0.75 1.21875,0.14062 2.76562,0.14062 2.25,0 3.79688,-0.60937 1.54687,-0.65625 1.875,-0.65625 0.79687,0 0.79687,0.98437 0,1.875 -2.90625,4.125 -2.85937,2.20313 -7.96875,2.20313 -2.25,0 -4.3125,-0.42188 -2.0625,-0.42187 -4.07812,-1.45312 -2.01563,-1.07813 -3.46875,-2.67188 -1.45313,-1.59375 -2.34375,-4.17187 -0.89063,-2.57813 -0.89063,-5.85938 0,-4.45312 2.25,-6.46875 z m 30,-2.10937 q 3.28122,0 4.21872,1.125 1.1719,1.5 1.1719,4.73437 0,5.25 -2.9531,9.79688 -1.17189,1.73437 -3.42189,3.5625 -2.20313,1.82812 -3.23438,1.82812 -0.84375,0 -0.84375,-0.84375 0,-0.32812 0.51563,-1.125 0.51562,-0.84375 1.125,-1.82812 0.60937,-1.03125 1.125,-3.04688 0.51562,-2.01562 0.51562,-4.40625 0,-1.59375 -0.51562,-4.125 -0.51563,-2.53125 -1.5,-3.98437 -0.28125,-0.42188 -0.28125,-0.65625 0,-0.28125 0.14062,-0.46875 0.1875,-0.1875 1.125,-0.375 0.98438,-0.1875 2.8125,-0.1875 z m -1.21875,62.20312 q 2.4375,-1.64062 3.70317,-4.21875 1.2656,-2.57812 1.2656,-5.29687 0,-6.60938 -4.17189,-9.28125 -4.17188,-2.67188 -12.60938,-2.76563 -3.375,-0.0469 -5.0625,-0.0937 -1.64062,-0.0469 -4.26562,-0.32812 -2.625,-0.23438 -3.9375,-0.79688 -1.3125,-0.51562 -2.8125,-1.45312 -1.45313,-0.89063 -2.0625,-2.34375 -0.5625,-1.5 -0.5625,-3.5625 0,-3.42188 2.20312,-5.76563 2.20313,-2.39062 3.79688,-2.39062 0.84375,0 0.84375,0.84375 0,0.32812 -0.5625,1.6875 -0.51563,1.35937 -0.51563,2.48437 0,0.98438 0.46875,1.6875 0.51563,0.65625 1.3125,1.07813 0.79688,0.375 2.29688,0.5625 1.54687,0.1875 3.09375,0.28125 1.59375,0.0469 4.125,0.0469 3.1875,0 5.625,0.14063 2.48437,0.0937 5.25,0.51562 2.76562,0.42188 4.78125,1.17188 2.06254,0.70312 3.98434,1.96875 1.9688,1.26562 3.1875,2.95312 1.2188,1.73438 1.9688,4.26563 0.75,2.53125 0.75,5.67187 0,3.09375 -1.2188,5.85938 -1.1718,2.8125 -3,4.64062 -1.7812,1.875 -3.8437,3 -2.06252,1.17188 -3.84377,1.26563 -0.9375,0 -0.9375,-0.75 0,-0.46875 0.75,-1.07813 z m 8.15627,-65.29687 q -1.9688,0.75 -7.26564,0.75 -5.67188,0 -8.39063,-1.07813 -4.875,-1.92187 -8.625,-1.92187 -2.01562,0 -5.20312,0.89062 -3.1875,0.84375 -6.51563,3.04688 -1.875,1.3125 -2.20312,1.3125 -0.75,0 -0.75,-0.84375 0,-0.75 1.21875,-2.48438 1.78125,-2.625 4.03125,-4.45312 2.25,-1.875 4.54687,-2.71875 2.34375,-0.84375 4.21875,-1.17188 1.92188,-0.32812 3.79688,-0.32812 5.34375,0 10.3125,2.10937 2.76562,1.17188 4.92187,1.17188 h 8.90627 q 1.5,0 1.5,1.03125 0,1.07812 -1.5,2.625 -1.5,1.5 -3,2.0625 z m -40.21877,56.76562 q 0,-4.73437 2.57813,-8.25 2.57812,-3.51562 4.40625,-3.51562 0.89062,0 0.89062,0.9375 0,0.14062 -0.46875,2.29687 -0.42187,2.15625 -0.42187,4.5 0,4.35938 3.89062,6.79688 3.9375,2.48437 10.45313,2.48437 2.39062,0 4.82812,-0.51562 2.4375,-0.51563 3.84375,-1.03125 1.45313,-0.51563 1.5,-0.51563 0.84375,0 0.84375,0.84375 0,0.9375 -1.07812,2.20313 -1.03125,1.3125 -3,2.625 -1.92188,1.3125 -5.29688,2.20312 -3.32812,0.9375 -7.3125,0.9375 -2.53125,0 -5.15625,-0.70312 -2.57812,-0.65625 -5.01562,-2.01563 -2.4375,-1.35937 -3.98438,-3.79687 -1.5,-2.39063 -1.5,-5.48438 z"
           style="fill:#f2f2f2"
           id="path9607" />
        <path
           d="m 1025.1241,352.41602 q 0,1.3125 0.7969,1.6875 0.8437,0.32812 2.4375,0.32812 4.0781,0 6.9843,-0.70312 2.9063,-0.70313 4.4532,-1.96875 1.5468,-1.26563 2.2031,-2.67188 0.7031,-1.40625 0.7031,-3.09375 0,-2.90625 -2.0156,-4.64062 -2.0156,-1.78125 -6.4688,-1.78125 -6.9843,0 -13.125,4.40625 -1.8281,1.35937 -2.2968,1.35937 -0.7969,0 -0.7969,-0.89062 0,-1.17188 1.3594,-2.85938 2.5312,-3.23437 5.7656,-5.29687 3.2344,-2.0625 5.9062,-2.76563 2.6719,-0.70312 5.2969,-0.70312 3.375,0 6.0938,0.70312 2.7187,0.70313 4.8281,2.20313 2.1094,1.45312 3.2812,4.03125 1.1719,2.53125 1.1719,5.95312 0,7.3125 -6.9844,11.29688 -6.9375,3.9375 -18.9843,3.9375 -3.375,0 -7.6407,-0.375 -2.1093,-0.14063 -2.1093,-2.0625 0,-5.20313 1.5,-7.78125 1.5,-2.625 3.8906,-4.03125 2.3437,-1.35938 3.5625,-1.35938 1.125,0 1.125,1.40625 0,0.5625 -0.4688,2.76563 -0.4687,2.15625 -0.4687,2.90625 z m -8.7656,13.07812 q 0,-2.4375 2.25,-2.4375 h 4.0312 q 1.2188,0 1.6875,0.46875 0.5156,0.46875 0.7969,2.0625 1.8281,11.39063 12.4687,11.39063 2.6719,0 5.0157,-0.65625 2.3437,-0.65625 3.6093,-1.45313 1.3125,-0.79687 2.3907,-1.45312 1.125,-0.65625 1.6406,-0.65625 1.0781,0 1.0781,1.17187 0,0.98438 -1.0781,2.53125 -1.0781,1.54688 -3.0938,3.23438 -1.9687,1.64062 -5.4843,2.8125 -3.4688,1.21875 -7.5469,1.21875 -8.4375,0 -13.125,-5.0625 -4.6406,-5.10938 -4.6406,-13.17188 z"
           style="fill:#f2f2f2"
           id="path9609" />
        <path
           d="m 1061.2178,380.72852 v -23.625 q 0,-2.625 1.2657,-4.03125 1.2656,-1.45313 3,-2.625 1.7343,-1.21875 2.7187,-1.21875 1.4531,0 1.4531,2.01562 v 25.59375 q 0,2.57813 -2.2968,4.26563 -2.2969,1.64062 -4.5,1.64062 -1.6407,0 -1.6407,-2.01562 z m 20.1563,-47.90625 q 2.6719,0 5.5781,1.17187 2.9531,1.17188 2.9531,3.04688 0,1.5 -1.9687,3.14062 -1.9688,1.59375 -3.4688,1.59375 -1.2656,0 -3.5625,-1.17187 -2.1562,-1.03125 -3.9375,-1.03125 -1.125,0 -2.1562,0.375 -1.0313,0.32812 -2.3906,1.35937 -1.3594,0.98438 -2.25,1.73438 -0.8438,0.70312 -2.9532,2.67187 -2.0625,1.92188 -3.2343,2.95313 -1.0313,0.89062 -1.7344,0.89062 -1.0313,0 -1.0313,-1.73437 v -9.09375 q 0,-2.53125 2.2969,-4.21875 2.3438,-1.6875 4.5,-1.6875 1.6406,0 1.6406,2.01562 v 2.625 q 0,1.5 0.6563,1.5 0.5156,0 1.6406,-1.125 5.0156,-5.01562 9.4219,-5.01562 z"
           style="fill:#f2f2f2"
           id="path9611" />
      </g>
    </g>
  </g>
</svg>
