<?xml version="1.0" encoding="UTF-8" standalone="no"?>
<!-- Created with Inkscape (http://www.inkscape.org/) -->

<svg
   width="363.85272"
   height="363.96805"
   viewBox="0 0 363.85272 363.96805"
   version="1.1"
   id="svg5"
   inkscape:version="1.1.1 (3bf5ae0d25, 2021-09-20)"
   sodipodi:docname="logo_round.svg"
   xmlns:inkscape="http://www.inkscape.org/namespaces/inkscape"
   xmlns:sodipodi="http://sodipodi.sourceforge.net/DTD/sodipodi-0.dtd"
   xmlns="http://www.w3.org/2000/svg"
   xmlns:svg="http://www.w3.org/2000/svg">
  <sodipodi:namedview
     id="namedview7"
     pagecolor="#505050"
     bordercolor="#eeeeee"
     borderopacity="1"
     inkscape:pageshadow="0"
     inkscape:pageopacity="0"
     inkscape:pagecheckerboard="true"
     inkscape:document-units="px"
     showgrid="false"
     inkscape:zoom="0.70710678"
     inkscape:cx="262.06397"
     inkscape:cy="127.32821"
     inkscape:window-width="1227"
     inkscape:window-height="1008"
     inkscape:window-x="1324"
     inkscape:window-y="0"
     inkscape:window-maximized="0"
     inkscape:current-layer="layer1"
     fit-margin-top="0"
     fit-margin-left="0"
     fit-margin-right="0"
     fit-margin-bottom="0"
     inkscape:rotation="4" />
  <defs
     id="defs2" />
  <g
     inkscape:label="Layer 1"
     inkscape:groupmode="layer"
     id="layer1"
     transform="translate(-383.12583,-454.68526)">
    <path
       style="fill:#f2f2f2;fill-opacity:1;stroke-width:2.45535;stroke-miterlimit:4;stroke-dasharray:none"
       d="m 269.68921,444.18744 c 0.21682,-0.0613 0.51935,-0.0638 0.6723,-0.006 0.15295,0.0582 -0.0245,0.1084 -0.39421,0.11145 -0.36977,0.003 -0.49491,-0.0446 -0.27809,-0.10591 z"
       id="path31744" />
    <path
       style="fill:#f2f2f2;fill-opacity:1;stroke-width:0.171203;stroke-miterlimit:4;stroke-dasharray:none"
       d="m 230.68677,671.60484 c -5.19408,-2.15527 -10.559,-4.68163 -15.40763,-7.25551 l -0.42086,-0.22341 -0.0256,-0.34512 c -0.0141,-0.18982 -0.0225,-0.34532 -0.0187,-0.34555 0.004,-2.4e-4 0.0931,0.0459 0.19843,0.10254 4.69888,2.52653 9.93058,5.02014 15.07648,7.18597 l 1.21591,0.51176 0.02,0.31577 c 0.011,0.17368 0.0147,0.31603 0.008,0.31634 -0.006,3.1e-4 -0.29731,-0.11794 -0.64638,-0.26279 z"
       id="path31783" />
    <path
       style="fill:#f2f2f2;fill-opacity:1;stroke-width:0.0428008;stroke-miterlimit:4;stroke-dasharray:none"
       d="m 138.98283,486.42339 c 0.006,-0.054 0.0254,-0.24158 0.0436,-0.41677 0.0967,-0.93103 0.21897,-2.00684 0.33703,-2.9656 0.0667,-0.54116 0.0918,-0.73898 0.18249,-1.43516 l 0.0172,-0.132 0.20165,-0.16064 0.20165,-0.16064 -0.004,0.0265 c -0.0186,0.12884 -0.1057,0.79826 -0.16582,1.27443 -0.16388,1.29807 -0.33886,2.8471 -0.46886,4.15067 l -0.018,0.18039 -0.0392,0.0312 -0.0392,0.0312 -0.12958,-0.16271 -0.12959,-0.16272 0.0105,-0.0982 z"
       id="path31822" />
    <path
       style="fill:#f2f2f2;fill-opacity:1;stroke-width:0.0428008;stroke-miterlimit:4;stroke-dasharray:none"
       d="m 141.12402,471.92134 c 0.36051,-1.83917 0.65325,-3.23148 1.02817,-4.89014 l 0.0831,-0.36747 0.13587,0.17054 0.13587,0.17055 -0.0294,0.13066 c -0.32344,1.43587 -0.69722,3.21666 -0.95268,4.53878 l -0.0263,0.13622 -0.20842,0.16624 c -0.11463,0.0914 -0.2086,0.16583 -0.20881,0.16531 -2.1e-4,-5.2e-4 0.019,-0.0998 0.0427,-0.22069 z"
       id="path31861" />
    <path
       style="fill:#f2f2f2;fill-opacity:1;stroke-width:0.0428008;stroke-miterlimit:4;stroke-dasharray:none"
       d="m 140.77326,473.78849 c 0.0936,-0.51381 0.17096,-0.92776 0.29511,-1.57857 l 0.0127,-0.0665 0.20814,-0.16453 0.20813,-0.16454 -0.0703,0.36663 c -0.11167,0.58214 -0.20963,1.10763 -0.31386,1.68374 l -0.0499,0.27573 -0.0743,0.0592 -0.0743,0.0592 -0.0924,-0.11594 -0.0924,-0.11594 z"
       id="path31900" />
    <path
       style="fill:#f2f2f2;fill-opacity:1;stroke-width:0.0428008;stroke-miterlimit:4;stroke-dasharray:none"
       d="m 140.2368,476.90776 c 0.14581,-0.90041 0.28324,-1.70539 0.46927,-2.74879 0.0124,-0.0696 0.0233,-0.12712 0.0242,-0.12786 9.3e-4,-7.3e-4 0.0428,0.0502 0.093,0.11323 l 0.0913,0.11457 0.0742,-0.0589 0.0742,-0.0589 -0.003,0.0184 c -0.002,0.0101 -0.0216,0.1232 -0.0444,0.25126 -0.11869,0.66607 -0.269,1.55022 -0.3869,2.27581 -0.0339,0.20868 -0.12548,0.78094 -0.13592,0.84944 l -0.005,0.0305 -0.14872,-0.18668 -0.14873,-0.18668 z"
       id="path31939" />
    <g
       id="g49487"
       transform="translate(264.17259,133.53389)">
      <circle
         style="fill:#b60000;fill-opacity:1;stroke-width:25.9465"
         id="path29865"
         cx="300.71201"
         cy="502.72287"
         r="162.18462" />
      <path
         style="fill:#f2f2f2;fill-opacity:1;stroke-width:5.82633;stroke-miterlimit:4;stroke-dasharray:none"
         d="m 291.08146,684.83038 c -44.20203,-2.67242 -84.6482,-20.23959 -116.18971,-50.46524 -28.8485,-27.64497 -47.27108,-62.75789 -54.22499,-103.35132 -1.98018,-11.55931 -2.32294,-40.57213 -0.61373,-51.94867 5.8742,-39.0987 21.43371,-71.95039 47.34618,-99.96473 26.74132,-28.91042 61.6014,-47.95325 101.98423,-55.71037 12.44927,-2.39137 43.05439,-3.01854 55.56256,-1.1386 48.12818,7.23353 89.90494,31.25832 119.06073,68.46892 42.00922,53.61498 50.56031,124.92438 22.44449,187.16938 -9.31414,20.62037 -20.23805,36.42167 -36.66184,53.03091 -15.31914,15.49213 -28.27444,24.92229 -47.56929,34.62568 -28.25578,14.20986 -60.8823,21.11332 -91.13863,19.28404 z m 36.3975,-21.79436 c 17.87994,-2.98465 33.21161,-8.17557 49.41401,-16.73036 64.81867,-34.22391 98.42631,-107.53269 82.31332,-179.55112 -4.52558,-20.22749 -13.59947,-40.4629 -26.36507,-58.79594 -8.4176,-12.08874 -28.41698,-31.62803 -40.85276,-39.91292 -22.98266,-15.31138 -49.45711,-24.77004 -75.90372,-27.11852 -14.07262,-1.24965 -37.23661,0.0605 -49.75965,2.81437 -34.28975,7.54049 -67.39795,27.31957 -89.28059,53.33688 -42.49326,50.52224 -50.90521,120.08112 -21.58587,178.49485 5.87541,11.70577 8.5472,15.93538 17.05147,26.99369 25.87431,33.645 65.20584,56.13078 107.41578,61.40944 11.20881,1.40174 36.52098,0.90119 47.55308,-0.94033 z"
         id="path30888" />
      <path
         style="fill:#f2f2f2;fill-opacity:1;stroke-width:2.2902;stroke-miterlimit:4;stroke-dasharray:none"
         d="m 360.38437,439.64554 c -13.35827,0.092 -48.79062,0.35146 -78.73852,0.57658 -29.94793,0.22512 -60.31299,0.41686 -67.47793,0.4261 l -13.02714,0.0168 -0.0739,-2.89412 -0.0739,-2.89412 17.53166,-0.0794 c 27.06946,-0.1226 83.2339,-0.53456 130.54563,-0.95755 23.59121,-0.21092 46.46406,-0.35974 50.82854,-0.33071 l 7.93544,0.0528 0.0717,2.81674 0.0717,2.81674 -11.65267,0.14144 c -6.40896,0.0778 -22.58216,0.21672 -35.94042,0.30872 z"
         id="path30964" />
      <g
         id="g33054"
         transform="matrix(1.2943301,0,0,1.5148999,-85.13589,-93.802504)"
         style="fill:#f2f2f2;fill-opacity:1">
        <g
           id="g29417"
           transform="matrix(1.8602192,0,0,1.5274184,-554.93994,91.268116)"
           style="fill:#f2f2f2;fill-opacity:1">
          <g
             aria-label="W"
             transform="matrix(1.0242222,0,0,0.97635064,12.458994,-8.2469706)"
             id="text25878"
             style="font-size:91.9967px;line-height:1.25;font-family:SirinStencil;-inkscape-font-specification:SirinStencil;fill:#f2f2f2;fill-opacity:1;stroke-width:2.29992">
            <path
               d="m 433.0948,220.99136 -5.34552,23.2687 q -0.94332,4.08774 -3.59362,6.15407 -2.69521,2.11126 -4.04282,2.11126 -1.30269,0 -1.30269,-1.34761 0,-0.94333 10.33166,-46.40263 0.40428,-1.79681 1.57221,-1.79681 1.25777,0 2.24601,4.26742 1.03317,4.26743 1.03317,7.50168 0,2.11126 -0.8984,6.24392 z m 39.2603,-29.91689 -14.06004,53.18559 q -0.8984,4.08774 -3.68346,6.15407 -2.82998,2.11126 -4.44711,2.11126 -1.16792,0 -1.16792,-1.25777 0,-1.25777 0.76364,-3.95299 l 13.47608,-52.24226 q 0.76365,-2.8749 3.27918,-4.89631 2.56045,-2.02141 4.76155,-2.02141 1.34761,0 1.34761,1.34761 0,0.62888 -0.26953,1.57221 z m -58.62094,50.44545 -10.73594,-46.40263 q -0.26952,-1.34761 -0.26952,-1.66205 0,-2.11125 2.42569,-3.68346 2.4257,-1.61713 4.17759,-1.61713 0.76364,0 1.123,0.4492 0.35937,0.40428 0.62889,1.57221 l 8.2204,35.39717 q 0.49413,2.20109 0.49413,4.62678 0,4.94123 -1.48237,9.20866 -1.43745,4.2225 -2.82998,4.2225 -1.30269,0 -1.75189,-2.11125 z m 19.72,-50.26577 q 1.03316,-1.30269 2.74013,-2.2011 1.75189,-0.8984 2.8749,-0.8984 0.71872,0 1.12301,0.49412 0.40428,0.44921 0.71872,1.61713 l 9.02897,37.14906 q 0.53905,2.42569 0.53905,4.31234 0,1.66205 -0.89841,5.34551 -0.85348,3.63855 -1.66205,5.16584 -0.80856,1.48236 -1.84173,1.48236 -1.30269,0 -1.84173,-2.11125 l -11.40975,-45.99835 q -0.26952,-1.03316 -0.26952,-1.93157 0,-1.25777 0.89841,-2.42569 z"
               id="path28602"
               style="fill:#f2f2f2;fill-opacity:1" />
          </g>
        </g>
        <path
           style="fill:#f2f2f2;fill-opacity:1;stroke-width:2.95697;stroke-miterlimit:4;stroke-dasharray:none"
           d="m 280.44745,410.30829 c 0.69453,-0.48501 4.29926,-0.7696 22.66434,-1.78928 15.88919,-0.8822 16.96618,-0.72992 16.64052,2.353 -0.40747,3.85752 -5.66351,9.7979 -9.09479,10.27893 -1.52438,0.2137 -5.60049,0.45119 -9.88333,0.62859 -5.81695,0.24093 -12.01526,0.37101 -12.71972,0.18003 -2.48908,-0.67479 -6.34576,-5.45314 -7.55598,-9.36172 -0.45823,-1.47993 -0.46973,-1.99715 -0.0511,-2.28955 z"
           id="path31003"
           sodipodi:nodetypes="ssssssss" />
      </g>
      <rect
         style="fill:#000000;fill-opacity:1;stroke-width:14.6227;stroke-miterlimit:4;stroke-dasharray:none"
         id="rect38316"
         width="12.308856"
         height="54.654938"
         x="195.78912"
         y="410.24133" />
      <rect
         style="fill:#000000;fill-opacity:1;stroke-width:10.957;stroke-miterlimit:4;stroke-dasharray:none"
         id="rect38340"
         width="0.7766906"
         height="8.2735367"
         x="200.36409"
         y="440.66501" />
      <rect
         style="fill:#000000;fill-opacity:1;stroke-width:10.5799;stroke-miterlimit:4;stroke-dasharray:none"
         id="rect38422"
         width="7.8756166"
         height="44.716404"
         x="187.92288"
         y="414.95181" />
      <rect
         style="fill:#000000;fill-opacity:1;stroke-width:8.17672;stroke-miterlimit:4;stroke-dasharray:none"
         id="rect38424"
         width="5.9838238"
         height="35.153763"
         x="-187.97183"
         y="418.85507"
         transform="scale(-1,1)" />
      <rect
         style="fill:#000000;fill-opacity:1;stroke-width:14.6227;stroke-miterlimit:4;stroke-dasharray:none"
         id="rect38426"
         width="12.308856"
         height="54.654938"
         x="-418.98801"
         y="-458.58603"
         transform="rotate(-179.51089)" />
      <rect
         style="fill:#000000;fill-opacity:1;stroke-width:10.5799;stroke-miterlimit:4;stroke-dasharray:none"
         id="rect38428"
         width="7.8756166"
         height="44.716404"
         x="-426.85425"
         y="-453.87555"
         transform="rotate(-179.51089)" />
      <rect
         style="fill:#000000;fill-opacity:1;stroke-width:8.17672;stroke-miterlimit:4;stroke-dasharray:none"
         id="rect38430"
         width="5.9838238"
         height="35.153763"
         x="426.8053"
         y="-449.97226"
         transform="matrix(0.99996356,0.00853651,0.00853651,-0.99996356,0,0)" />
    </g>
  </g>
</svg>
